<svg xmlns="http://www.w3.org/2000/svg" viewBox="0 0 1110 402" role="img" aria-label="Demographic mixing"><title>Demographic mixing</title><desc>US-English engineering pilots; seed 1000; 8 measured runs | Mean (valid n). Teal: positive; orange: negative; NA: undefined. Age uses a different metric.</desc><rect width="100%" height="100%" fill="#fff"/><g font-family="sans-serif" font-size="12" fill="#172c3d"><text x="16" y="24" font-size="16" font-weight="bold">Demographic mixing</text><text x="16" y="45" fill="#526372">US-English engineering pilots; seed 1000; 8 measured runs | Mean (valid n). Teal: positive; orange: negative; NA: undefined. Age uses a different metric.</text><text x="580" y="72" text-anchor="middle">gender</text><text x="692" y="72" text-anchor="middle">Race/ethnicity</text><text x="804" y="72" text-anchor="middle">religion</text><text x="916" y="72" text-anchor="middle">Politics</text><text x="1028" y="72" text-anchor="middle">Age (numeric)</text><text x="16" y="106">6-luna / global / US / english / engineering_pilot / v1</text><rect x="530" y="86" width="100" height="28" fill="#186e71" fill-opacity="0.41967911121136925" stroke="#ccd5dc"/><text x="580" y="104" text-anchor="middle" fill="#172c3d">0.560 (1)<title>gender; valid n=1/1</title></text><rect x="642" y="86" width="100" height="28" fill="#186e71" fill-opacity="0.4740310104551566" stroke="#ccd5dc"/><text x="692" y="104" text-anchor="middle" fill="#fff">0.632 (1)<title>race/ethnicity; valid n=1/1</title></text><rect x="754" y="86" width="100" height="28" fill="#186e71" fill-opacity="0.167956178335685" stroke="#ccd5dc"/><text x="804" y="104" text-anchor="middle" fill="#172c3d">0.224 (1)<title>religion; valid n=1/1</title></text><rect x="866" y="86" width="100" height="28" fill="#186e71" fill-opacity="0.48982114961133805" stroke="#ccd5dc"/><text x="916" y="104" text-anchor="middle" fill="#fff">0.653 (1)<title>political affiliation; valid n=1/1</title></text><rect x="978" y="86" width="100" height="28" fill="#186e71" fill-opacity="0.6450867800708057" stroke="#ccd5dc"/><text x="1028" y="104" text-anchor="middle" fill="#fff">0.860 (1)<title>age; valid n=1/1</title></text><text x="16" y="140">6-luna / iterative / US / english / engineering_pilot / v1</text><rect x="530" y="120" width="100" height="28" fill="#186e71" fill-opacity="0.0235253416363951" stroke="#ccd5dc"/><text x="580" y="138" text-anchor="middle" fill="#172c3d">0.031 (1)<title>gender; valid n=1/1</title></text><rect x="642" y="120" width="100" height="28" fill="#186e71" fill-opacity="0.12449142747462497" stroke="#ccd5dc"/><text x="692" y="138" text-anchor="middle" fill="#172c3d">0.166 (1)<title>race/ethnicity; valid n=1/1</title></text><rect x="754" y="120" width="100" height="28" fill="#186e71" fill-opacity="0.05794022796126583" stroke="#ccd5dc"/><text x="804" y="138" text-anchor="middle" fill="#172c3d">0.077 (1)<title>religion; valid n=1/1</title></text><rect x="866" y="120" width="100" height="28" fill="#186e71" fill-opacity="0.6709251117471196" stroke="#ccd5dc"/><text x="916" y="138" text-anchor="middle" fill="#fff">0.895 (1)<title>political affiliation; valid n=1/1</title></text><rect x="978" y="120" width="100" height="28" fill="#186e71" fill-opacity="0.5776051198900761" stroke="#ccd5dc"/><text x="1028" y="138" text-anchor="middle" fill="#fff">0.770 (1)<title>age; valid n=1/1</title></text><text x="16" y="174">6-luna / local / US / english / engineering_pilot / v1</text><rect x="530" y="154" width="100" height="28" fill="#186e71" fill-opacity="0.2620271122320303" stroke="#ccd5dc"/><text x="580" y="172" text-anchor="middle" fill="#172c3d">0.349 (1)<title>gender; valid n=1/1</title></text><rect x="642" y="154" width="100" height="28" fill="#186e71" fill-opacity="0.1649155424308912" stroke="#ccd5dc"/><text x="692" y="172" text-anchor="middle" fill="#172c3d">0.220 (1)<title>race/ethnicity; valid n=1/1</title></text><rect x="754" y="154" width="100" height="28" fill="#186e71" fill-opacity="0.09390876358796958" stroke="#ccd5dc"/><text x="804" y="172" text-anchor="middle" fill="#172c3d">0.125 (1)<title>religion; valid n=1/1</title></text><rect x="866" y="154" width="100" height="28" fill="#186e71" fill-opacity="0.49357920040485825" stroke="#ccd5dc"/><text x="916" y="172" text-anchor="middle" fill="#fff">0.658 (1)<title>political affiliation; valid n=1/1</title></text><rect x="978" y="154" width="100" height="28" fill="#186e71" fill-opacity="0.5121722115158861" stroke="#ccd5dc"/><text x="1028" y="172" text-anchor="middle" fill="#fff">0.683 (1)<title>age; valid n=1/1</title></text><text x="16" y="208">6-luna / sequential / US / english / engineering_pilot / v1</text><rect x="530" y="188" width="100" height="28" fill="#186e71" fill-opacity="0.30952580701032717" stroke="#ccd5dc"/><text x="580" y="206" text-anchor="middle" fill="#172c3d">0.413 (1)<title>gender; valid n=1/1</title></text><rect x="642" y="188" width="100" height="28" fill="#186e71" fill-opacity="0.18294618470678023" stroke="#ccd5dc"/><text x="692" y="206" text-anchor="middle" fill="#172c3d">0.244 (1)<title>race/ethnicity; valid n=1/1</title></text><rect x="754" y="188" width="100" height="28" fill="#186e71" fill-opacity="0.11507801564993213" stroke="#ccd5dc"/><text x="804" y="206" text-anchor="middle" fill="#172c3d">0.153 (1)<title>religion; valid n=1/1</title></text><rect x="866" y="188" width="100" height="28" fill="#186e71" fill-opacity="0.41957327405515454" stroke="#ccd5dc"/><text x="916" y="206" text-anchor="middle" fill="#172c3d">0.559 (1)<title>political affiliation; valid n=1/1</title></text><rect x="978" y="188" width="100" height="28" fill="#186e71" fill-opacity="0.39139775446497205" stroke="#ccd5dc"/><text x="1028" y="206" text-anchor="middle" fill="#172c3d">0.522 (1)<title>age; valid n=1/1</title></text><text x="16" y="242">6-sol / global / US / english / engineering_pilot / v2</text><rect x="530" y="222" width="100" height="28" fill="#186e71" fill-opacity="0.25922705477139196" stroke="#ccd5dc"/><text x="580" y="240" text-anchor="middle" fill="#172c3d">0.346 (1)<title>gender; valid n=1/1</title></text><rect x="642" y="222" width="100" height="28" fill="#186e71" fill-opacity="0.4867271491974635" stroke="#ccd5dc"/><text x="692" y="240" text-anchor="middle" fill="#fff">0.649 (1)<title>race/ethnicity; valid n=1/1</title></text><rect x="754" y="222" width="100" height="28" fill="#186e71" fill-opacity="0.0896740805699649" stroke="#ccd5dc"/><text x="804" y="240" text-anchor="middle" fill="#172c3d">0.120 (1)<title>religion; valid n=1/1</title></text><rect x="866" y="222" width="100" height="28" fill="#186e71" fill-opacity="0.5270360991196166" stroke="#ccd5dc"/><text x="916" y="240" text-anchor="middle" fill="#fff">0.703 (1)<title>political affiliation; valid n=1/1</title></text><rect x="978" y="222" width="100" height="28" fill="#186e71" fill-opacity="0.5438823786106519" stroke="#ccd5dc"/><text x="1028" y="240" text-anchor="middle" fill="#fff">0.725 (1)<title>age; valid n=1/1</title></text><text x="16" y="276">6-sol / iterative / US / english / engineering_pilot / v2</text><rect x="530" y="256" width="100" height="28" fill="#186e71" fill-opacity="0.01625209151412228" stroke="#ccd5dc"/><text x="580" y="274" text-anchor="middle" fill="#172c3d">0.022 (1)<title>gender; valid n=1/1</title></text><rect x="642" y="256" width="100" height="28" fill="#186e71" fill-opacity="0.0534831004294988" stroke="#ccd5dc"/><text x="692" y="274" text-anchor="middle" fill="#172c3d">0.071 (1)<title>race/ethnicity; valid n=1/1</title></text><rect x="754" y="256" width="100" height="28" fill="#186e71" fill-opacity="0.09058869701726845" stroke="#ccd5dc"/><text x="804" y="274" text-anchor="middle" fill="#172c3d">0.121 (1)<title>religion; valid n=1/1</title></text><rect x="866" y="256" width="100" height="28" fill="#186e71" fill-opacity="0.6495302970686603" stroke="#ccd5dc"/><text x="916" y="274" text-anchor="middle" fill="#fff">0.866 (1)<title>political affiliation; valid n=1/1</title></text><rect x="978" y="256" width="100" height="28" fill="#186e71" fill-opacity="0.6452101327791794" stroke="#ccd5dc"/><text x="1028" y="274" text-anchor="middle" fill="#fff">0.860 (1)<title>age; valid n=1/1</title></text><text x="16" y="310">6-sol / local / US / english / engineering_pilot / v2</text><rect x="530" y="290" width="100" height="28" fill="#186e71" fill-opacity="0.14552440531356192" stroke="#ccd5dc"/><text x="580" y="308" text-anchor="middle" fill="#172c3d">0.194 (1)<title>gender; valid n=1/1</title></text><rect x="642" y="290" width="100" height="28" fill="#186e71" fill-opacity="0.047816326774094794" stroke="#ccd5dc"/><text x="692" y="308" text-anchor="middle" fill="#172c3d">0.064 (1)<title>race/ethnicity; valid n=1/1</title></text><rect x="754" y="290" width="100" height="28" fill="#186e71" fill-opacity="0.22962244349068978" stroke="#ccd5dc"/><text x="804" y="308" text-anchor="middle" fill="#172c3d">0.306 (1)<title>religion; valid n=1/1</title></text><rect x="866" y="290" width="100" height="28" fill="#186e71" fill-opacity="0.317318252262015" stroke="#ccd5dc"/><text x="916" y="308" text-anchor="middle" fill="#172c3d">0.423 (1)<title>political affiliation; valid n=1/1</title></text><rect x="978" y="290" width="100" height="28" fill="#186e71" fill-opacity="0.6138072972605378" stroke="#ccd5dc"/><text x="1028" y="308" text-anchor="middle" fill="#fff">0.818 (1)<title>age; valid n=1/1</title></text><text x="16" y="344">6-sol / sequential / US / english / engineering_pilot / v2</text><rect x="530" y="324" width="100" height="28" fill="#186e71" fill-opacity="0.23133222065285322" stroke="#ccd5dc"/><text x="580" y="342" text-anchor="middle" fill="#172c3d">0.308 (1)<title>gender; valid n=1/1</title></text><rect x="642" y="324" width="100" height="28" fill="#186e71" fill-opacity="0.08690051696070952" stroke="#ccd5dc"/><text x="692" y="342" text-anchor="middle" fill="#172c3d">0.116 (1)<title>race/ethnicity; valid n=1/1</title></text><rect x="754" y="324" width="100" height="28" fill="#186e71" fill-opacity="0.19522639562481045" stroke="#ccd5dc"/><text x="804" y="342" text-anchor="middle" fill="#172c3d">0.260 (1)<title>religion; valid n=1/1</title></text><rect x="866" y="324" width="100" height="28" fill="#186e71" fill-opacity="0.3146348443223443" stroke="#ccd5dc"/><text x="916" y="342" text-anchor="middle" fill="#172c3d">0.420 (1)<title>political affiliation; valid n=1/1</title></text><rect x="978" y="324" width="100" height="28" fill="#186e71" fill-opacity="0.6012280974699065" stroke="#ccd5dc"/><text x="1028" y="342" text-anchor="middle" fill="#fff">0.802 (1)<title>age; valid n=1/1</title></text></g></svg>